<?xml version="1.0" standalone="no"?>
<!DOCTYPE svg PUBLIC "-//W3C//DTD SVG 20010904//EN"
 "http://www.w3.org/TR/2001/REC-SVG-20010904/DTD/svg10.dtd">
<svg version="1.0" xmlns="http://www.w3.org/2000/svg"
 width="5290.000000pt" height="1963.000000pt" viewBox="0 0 5290.000000 1963.000000"
 preserveAspectRatio="xMidYMid meet">

<g transform="translate(0.000000,1963.000000) scale(0.100000,-0.100000)"
fill="#000000" stroke="none">
<path d="M10 19305 l0 -305 26440 0 26440 0 0 305 0 305 -26440 0 -26440 0 0
-305z"/>
<path d="M5890 17599 c-271 -15 -573 -66 -812 -135 -568 -165 -1142 -533
-1527 -978 -524 -608 -838 -1335 -943 -2186 -20 -166 -17 -738 5 -920 75 -604
230 -1119 468 -1552 83 -152 248 -400 352 -529 248 -307 563 -562 939 -758
369 -194 728 -299 1223 -358 212 -25 829 -25 1025 0 572 73 998 229 1455 533
375 249 685 561 950 959 351 527 571 1131 652 1785 22 179 24 644 4 820 -92
817 -385 1548 -859 2141 -296 370 -704 686 -1152 890 -496 227 -1114 327
-1780 288z m450 -753 c859 -115 1441 -814 1655 -1991 67 -366 89 -643 90
-1100 0 -445 -21 -684 -95 -1055 -76 -382 -234 -793 -407 -1055 -212 -322
-505 -562 -808 -663 -409 -136 -930 -101 -1306 89 -335 168 -640 498 -839 904
-311 638 -470 1445 -439 2229 27 675 169 1274 410 1725 181 339 455 625 735
768 158 81 326 131 519 156 78 10 390 5 485 -7z"/>
<path d="M21320 17599 c-271 -15 -573 -66 -812 -135 -568 -165 -1142 -533
-1527 -978 -524 -608 -838 -1335 -943 -2186 -20 -166 -17 -738 5 -920 75 -604
230 -1119 468 -1552 83 -152 248 -400 352 -529 248 -307 563 -562 939 -758
369 -194 728 -299 1223 -358 212 -25 829 -25 1025 0 572 73 998 229 1455 533
375 249 685 561 950 959 351 527 571 1131 652 1785 22 179 24 644 4 820 -92
817 -385 1548 -859 2141 -296 370 -704 686 -1152 890 -496 227 -1114 327
-1780 288z m450 -753 c859 -115 1441 -814 1655 -1991 67 -366 89 -643 90
-1100 0 -445 -21 -684 -95 -1055 -76 -382 -234 -793 -407 -1055 -212 -322
-505 -562 -808 -663 -409 -136 -930 -101 -1306 89 -335 168 -640 498 -839 904
-311 638 -470 1445 -439 2229 27 675 169 1274 410 1725 181 339 455 625 735
768 158 81 326 131 519 156 78 10 390 5 485 -7z"/>
<path d="M43500 17599 c-271 -15 -573 -66 -812 -135 -568 -165 -1142 -533
-1527 -978 -524 -608 -838 -1335 -943 -2186 -20 -166 -17 -738 5 -920 75 -604
230 -1119 468 -1552 83 -152 248 -400 352 -529 248 -307 563 -562 939 -758
369 -194 728 -299 1223 -358 212 -25 829 -25 1025 0 572 73 998 229 1455 533
375 249 685 561 950 959 351 527 571 1131 652 1785 22 179 24 644 4 820 -92
817 -385 1548 -859 2141 -296 370 -704 686 -1152 890 -496 227 -1114 327
-1780 288z m450 -753 c859 -115 1441 -814 1655 -1991 67 -366 89 -643 90
-1100 0 -445 -21 -684 -95 -1055 -76 -382 -234 -793 -407 -1055 -212 -322
-505 -562 -808 -663 -409 -136 -930 -101 -1306 89 -335 168 -640 498 -839 904
-311 638 -470 1445 -439 2229 27 675 169 1274 410 1725 181 339 455 625 735
768 158 81 326 131 519 156 78 10 390 5 485 -7z"/>
<path d="M10513 17443 l-73 -4 0 -389 0 -390 98 5 c161 9 656 24 660 20 2 -2
-4 -108 -14 -237 -16 -210 -19 -461 -24 -2548 -6 -2125 -8 -2322 -23 -2400
-24 -118 -52 -197 -93 -266 -94 -158 -198 -203 -546 -239 l-58 -6 0 -335 0
-335 1658 4 c1763 3 1731 3 2072 52 618 90 1138 288 1630 623 183 124 298 219
456 377 560 558 901 1277 1015 2140 30 225 32 608 6 825 -137 1114 -739 2055
-1652 2580 -525 303 -1087 466 -1794 520 -123 9 -3126 12 -3318 3z m3213 -702
c805 -123 1359 -554 1680 -1306 196 -461 298 -1110 281 -1785 -18 -694 -180
-1272 -485 -1730 -284 -427 -695 -713 -1162 -809 -197 -41 -260 -45 -650 -41
-206 3 -469 5 -584 5 l-208 0 7 59 c25 224 28 451 35 2696 6 2151 8 2393 23
2464 33 158 70 244 140 322 67 74 159 118 305 144 83 16 473 4 618 -19z"/>
<path d="M25850 17050 l0 -390 103 5 c168 9 661 24 664 21 2 -2 -1 -43 -7 -92
-28 -257 -31 -614 -19 -2684 6 -1147 9 -2137 5 -2201 -12 -217 -46 -364 -110
-474 -92 -156 -201 -204 -548 -240 l-58 -6 0 -335 0 -334 1160 0 1160 0 0 392
0 391 -317 -7 c-175 -4 -346 -10 -380 -14 -46 -6 -63 -5 -63 4 0 7 4 56 10
110 25 250 29 658 19 2099 -6 814 -9 1563 -7 1664 l3 185 140 -195 c254 -354
367 -499 2027 -2621 l1649 -2108 435 0 434 0 0 2920 c0 1916 4 2954 10 3018
25 234 77 370 179 465 39 36 80 63 118 77 71 27 223 57 332 66 l81 7 0 333 0
334 -1160 0 -1160 0 0 -390 0 -390 98 5 c165 9 656 24 660 20 2 -2 -2 -95 -9
-207 -9 -145 -14 -733 -18 -2067 l-6 -1865 -145 205 c-219 309 -471 642 -822
1084 -174 220 -888 1120 -1586 2000 l-1268 1600 -802 3 -802 2 0 -390z"/>
<path d="M33440 17328 c-1 -62 -11 -576 -24 -1143 -14 -566 -21 -1033 -17
-1038 4 -4 155 -6 337 -5 l329 3 6 165 c10 252 39 427 105 630 65 201 143 330
288 476 150 149 298 233 508 289 141 37 237 45 535 45 l273 0 0 -2539 c0
-2764 2 -2669 -55 -2849 -43 -135 -128 -243 -230 -291 -74 -35 -174 -55 -377
-76 l-58 -6 0 -335 0 -334 1485 0 1485 0 0 392 0 391 -332 -7 c-183 -4 -366
-10 -406 -14 l-73 -7 6 40 c26 182 28 382 32 2953 l4 2692 322 0 c177 0 354
-5 392 -10 266 -38 517 -172 667 -357 225 -276 332 -610 354 -1105 l7 -148
334 0 333 0 0 73 c0 54 -58 2212 -60 2225 0 1 -1388 2 -3085 2 l-3085 0 0
-112z"/>
<path d="M16660 9734 c-371 -338 -683 -623 -694 -633 -18 -19 -16 -23 94 -206
80 -132 116 -185 126 -181 8 3 280 163 605 356 l590 351 585 -367 c322 -201
589 -363 593 -358 4 5 65 94 136 198 l127 189 -68 67 c-38 37 -336 323 -662
634 l-594 566 -81 -1 -82 0 -675 -615z"/>
<path d="M49045 10144 c-592 -64 -1085 -455 -1270 -1007 -58 -175 -69 -253
-69 -497 0 -197 3 -238 22 -330 127 -584 533 -997 1101 -1120 532 -115 1056
32 1421 400 207 208 344 463 407 760 28 131 25 478 -5 616 -66 306 -197 550
-406 760 -208 207 -440 333 -731 394 -98 20 -372 34 -470 24z m403 -229 c365
-70 675 -313 842 -660 100 -208 134 -366 134 -615 -1 -258 -40 -425 -150 -640
-166 -324 -449 -540 -804 -615 -177 -38 -433 -29 -622 21 -112 29 -307 124
-399 193 -246 186 -421 485 -474 809 -21 127 -16 416 9 527 58 257 176 477
350 651 190 190 435 311 697 344 100 12 315 4 417 -15z"/>
<path d="M48598 9533 l-118 -4 0 -93 0 -93 88 5 87 4 -3 -438 c-4 -787 -5
-815 -24 -850 -17 -31 -84 -64 -130 -64 -16 0 -18 -9 -18 -80 l0 -80 365 0
366 0 -3 93 -3 92 -104 -4 -104 -4 6 54 c4 30 7 136 7 237 l0 182 68 0 67 0
39 -73 c58 -108 204 -354 250 -422 22 -33 60 -81 84 -107 l45 -48 193 0 194 0
0 78 0 78 -44 12 c-24 6 -58 23 -75 37 -17 15 -91 117 -164 228 -73 111 -150
217 -171 235 -32 28 -35 33 -19 39 264 95 377 242 377 493 0 219 -91 353 -294
433 -128 50 -209 59 -540 62 -168 1 -358 0 -422 -2z m672 -214 c69 -15 139
-64 170 -119 23 -41 25 -55 25 -165 0 -111 -2 -124 -27 -171 -31 -60 -84 -109
-147 -138 -36 -16 -72 -21 -163 -24 l-118 -4 0 261 c0 294 6 327 63 355 37 18
125 21 197 5z"/>
<path d="M5565 8190 c-261 -22 -528 -76 -755 -155 -140 -48 -419 -187 -555
-276 -277 -181 -490 -380 -690 -644 -404 -536 -638 -1202 -674 -1917 -59
-1181 459 -2222 1380 -2773 449 -268 926 -396 1484 -396 233 -1 404 17 653 67
342 68 563 149 859 315 254 142 429 274 639 484 172 172 405 448 403 479 -1
12 -377 358 -394 362 -5 2 -39 -36 -75 -83 -82 -107 -279 -308 -390 -397 -338
-269 -745 -455 -1146 -523 -152 -25 -500 -25 -629 0 -378 75 -668 252 -915
558 -340 423 -526 1026 -547 1774 -16 586 83 1110 292 1543 163 337 357 569
626 748 155 103 298 162 499 205 138 30 443 33 587 6 599 -111 972 -529 1121
-1257 l28 -135 272 -3 272 -2 0 985 0 985 -325 0 -325 0 5 -42 c14 -116 25
-241 25 -271 l0 -34 -173 86 c-95 47 -233 108 -307 134 -174 63 -439 130 -616
157 -161 24 -460 33 -629 20z"/>
<path d="M17109 8189 c-385 -30 -711 -115 -1024 -269 -533 -261 -940 -654
-1247 -1205 -196 -351 -330 -773 -392 -1235 -16 -115 -23 -389 -15 -550 39
-761 276 -1431 689 -1950 347 -435 887 -760 1460 -878 474 -98 1041 -101 1475
-7 240 52 402 109 620 219 462 233 814 552 1108 1001 266 409 440 884 513
1405 25 174 25 611 1 795 -52 391 -164 770 -321 1092 -299 611 -707 1034
-1258 1306 -188 93 -307 137 -503 187 -329 84 -740 117 -1106 89z m529 -637
c186 -41 329 -101 479 -201 457 -307 744 -908 837 -1757 119 -1085 -91 -2052
-554 -2547 -191 -204 -398 -325 -650 -378 -139 -30 -436 -33 -575 -5 -450 87
-801 369 -1039 835 -320 626 -451 1468 -350 2256 81 632 279 1119 582 1431
217 222 424 334 707 380 120 20 443 12 563 -14z"/>
<path d="M33175 8190 c-261 -22 -528 -76 -755 -155 -140 -48 -419 -187 -555
-276 -277 -181 -490 -380 -690 -644 -404 -536 -638 -1202 -674 -1917 -59
-1181 459 -2222 1380 -2773 449 -268 926 -396 1484 -396 233 -1 404 17 653 67
342 68 563 149 859 315 254 142 429 274 639 484 172 172 405 448 403 479 -1
12 -377 358 -394 362 -5 2 -39 -36 -75 -83 -82 -107 -279 -308 -390 -397 -338
-269 -745 -455 -1146 -523 -152 -25 -500 -25 -629 0 -378 75 -668 252 -915
558 -340 423 -526 1026 -547 1774 -16 586 83 1110 292 1543 163 337 357 569
626 748 155 103 298 162 499 205 138 30 443 33 587 6 599 -111 972 -529 1121
-1257 l28 -135 272 -3 272 -2 0 985 0 985 -325 0 -325 0 5 -42 c14 -116 25
-241 25 -271 l0 -34 -173 86 c-95 47 -233 108 -307 134 -174 63 -439 130 -616
157 -161 24 -460 33 -629 20z"/>
<path d="M38979 8189 c-385 -30 -711 -115 -1024 -269 -533 -261 -940 -654
-1247 -1205 -196 -351 -330 -773 -392 -1235 -16 -115 -23 -389 -15 -550 39
-761 276 -1431 689 -1950 347 -435 887 -760 1460 -878 474 -98 1041 -101 1475
-7 240 52 402 109 620 219 462 233 814 552 1108 1001 266 409 440 884 513
1405 25 174 25 611 1 795 -52 391 -164 770 -321 1092 -299 611 -707 1034
-1258 1306 -188 93 -307 137 -503 187 -329 84 -740 117 -1106 89z m529 -637
c186 -41 329 -101 479 -201 457 -307 744 -908 837 -1757 119 -1085 -91 -2052
-554 -2547 -191 -204 -398 -325 -650 -378 -139 -30 -436 -33 -575 -5 -450 87
-801 369 -1039 835 -320 626 -451 1468 -350 2256 81 632 279 1119 582 1431
217 222 424 334 707 380 120 20 443 12 563 -14z"/>
<path d="M44620 8193 c-441 -30 -780 -132 -1067 -318 -481 -314 -741 -851
-695 -1437 45 -562 283 -968 789 -1344 257 -191 720 -429 1249 -642 594 -239
773 -332 969 -499 172 -146 247 -307 248 -528 0 -121 -20 -201 -75 -307 -174
-335 -582 -519 -1065 -479 -296 24 -537 107 -767 264 -153 105 -303 261 -403
422 -94 149 -191 405 -236 616 l-23 114 -277 3 -277 2 0 -990 0 -990 319 0
c176 0 322 3 324 8 2 4 -1 81 -8 172 -7 91 -11 166 -10 168 1 1 64 -29 140
-68 562 -285 1169 -389 1784 -305 910 124 1548 655 1676 1393 62 358 1 737
-162 1015 -165 282 -415 525 -783 761 -134 86 -521 280 -760 380 -102 43 -242
103 -312 132 -915 388 -1223 655 -1245 1084 -13 253 89 447 312 595 185 123
370 175 629 175 238 0 434 -42 622 -135 264 -129 468 -343 610 -639 83 -173
131 -330 190 -624 l4 -22 278 2 277 3 3 983 2 982 -330 0 c-316 0 -330 -1
-330 -19 0 -10 7 -85 15 -166 9 -81 14 -149 13 -151 -2 -2 -33 15 -68 38 -379
241 -1032 388 -1560 351z"/>
<path d="M9730 8070 c-503 -3 -916 -7 -917 -8 -2 -1 -3 -147 -3 -325 l0 -323
58 3 c135 8 567 21 571 17 2 -2 -2 -81 -10 -176 -10 -132 -14 -637 -19 -2118
-6 -1922 -6 -1946 -27 -2035 -34 -150 -100 -259 -187 -310 -53 -31 -186 -63
-298 -71 l-88 -7 0 -278 0 -279 1255 0 1255 0 0 326 0 326 -247 -7 c-137 -4
-299 -10 -361 -14 l-113 -6 6 35 c17 105 25 403 25 983 l0 647 224 0 225 0 54
-64 c88 -104 254 -358 607 -931 523 -851 708 -1118 862 -1243 l63 -52 697 0
698 0 0 280 0 280 -36 0 c-104 0 -261 58 -371 136 -163 116 -278 263 -688 874
-153 228 -303 448 -334 489 -116 156 -332 347 -453 402 -16 7 -28 15 -28 18 0
3 35 17 78 29 119 36 289 105 414 167 515 258 845 666 949 1175 41 197 35 528
-12 765 -157 783 -809 1214 -1959 1295 -147 10 -246 10 -1890 0z m1745 -604
c141 -22 212 -43 330 -100 275 -132 441 -355 512 -686 15 -70 18 -132 18 -350
0 -279 -6 -337 -51 -507 -54 -203 -133 -344 -263 -465 -163 -153 -371 -239
-671 -279 -123 -17 -464 -15 -605 2 l-110 14 -3 860 c-2 529 1 914 7 1000 32
423 168 543 601 530 80 -3 186 -11 235 -19z"/>
<path d="M20920 7742 c0 -175 2 -321 4 -323 2 -2 82 -1 178 3 95 3 238 8 317
11 l144 5 -7 -66 c-24 -248 -26 -614 -16 -2266 10 -1807 9 -1888 -30 -2041
-36 -140 -111 -245 -205 -285 -57 -25 -177 -49 -277 -57 l-78 -6 0 -278 0
-279 960 0 960 0 0 327 0 326 -232 -6 c-128 -4 -271 -10 -317 -14 l-84 -6 6
25 c25 99 29 427 23 1857 -4 822 -5 1493 -3 1490 3 -2 51 -69 108 -149 189
-266 335 -456 1702 -2203 l1359 -1737 357 2 356 3 5 2495 c6 2323 7 2500 23
2565 35 140 110 255 194 299 46 23 174 54 255 61 40 3 83 8 96 11 l22 4 0 275
0 275 -960 0 -960 0 0 -323 0 -323 58 3 c111 7 567 21 570 18 2 -2 -1 -102 -7
-223 -7 -136 -11 -792 -11 -1711 0 -820 -3 -1491 -7 -1491 -5 1 -55 69 -113
151 -206 296 -441 598 -1740 2238 l-1315 1660 -667 1 -668 0 0 -318z"/>
<path d="M27460 7737 l0 -323 58 3 c135 8 567 21 571 17 2 -2 -2 -81 -10 -176
-10 -132 -14 -637 -19 -2118 -6 -1922 -6 -1946 -27 -2035 -34 -150 -100 -259
-187 -310 -53 -31 -186 -63 -298 -71 l-88 -7 0 -278 0 -279 1210 0 1210 0 0
327 0 326 -232 -6 c-128 -4 -271 -10 -317 -14 l-83 -6 6 29 c21 101 26 502 26
2169 0 1833 3 2011 36 2159 34 151 118 264 227 304 64 24 208 52 267 52 74 0
70 -18 70 286 l0 274 -1210 0 -1210 0 0 -323z"/>
<path d="M10 325 l0 -305 26440 0 26440 0 0 305 0 305 -26440 0 -26440 0 0
-305z"/>
</g>
</svg>
