<?xml version="1.0" standalone="no"?>
<!DOCTYPE svg PUBLIC "-//W3C//DTD SVG 20010904//EN"
 "http://www.w3.org/TR/2001/REC-SVG-20010904/DTD/svg10.dtd">
<svg version="1.0" xmlns="http://www.w3.org/2000/svg"
 width="5290.000000pt" height="1963.000000pt" viewBox="0 0 5290.000000 1963.000000"
 preserveAspectRatio="xMidYMid meet">

<g transform="translate(0.000000,1963.000000) scale(0.100000,-0.100000)"
fill="#000000" stroke="none">
<path d="M10 19305 l0 -305 26440 0 26440 0 0 305 0 305 -26440 0 -26440 0 0
-305z m52870 0 l0 -295 -26430 0 -26430 0 0 295 0 295 26430 0 26430 0 0 -295z"/>
<path d="M10 325 l0 -305 26440 0 26440 0 0 305 0 305 -26440 0 -26440 0 0
-305z m52870 0 l0 -295 -26430 0 -26430 0 0 295 0 295 26430 0 26430 0 0 -295z"/>
</g>
</svg>
