<?xml version="1.0" standalone="no"?>
<!DOCTYPE svg PUBLIC "-//W3C//DTD SVG 20010904//EN"
 "http://www.w3.org/TR/2001/REC-SVG-20010904/DTD/svg10.dtd">
<svg version="1.0" xmlns="http://www.w3.org/2000/svg"
 width="940.000000pt" height="788.000000pt" viewBox="0 0 940.000000 788.000000"
 preserveAspectRatio="xMidYMid meet">

<g transform="translate(0.000000,788.000000) scale(0.100000,-0.100000)"
fill="#000000" stroke="none">
<path d="M0 3940 l0 -3940 4700 0 4700 0 0 3940 0 3940 -4700 0 -4700 0 0
-3940z m3990 1515 l0 -455 45 0 c41 0 45 -2 45 -25 0 -25 0 -25 -95 -25 l-95
0 0 30 c0 33 -11 38 -31 14 -32 -38 -92 -59 -174 -59 -90 0 -136 19 -192 77
-59 61 -78 119 -78 238 0 92 3 112 26 160 36 78 80 124 151 160 51 25 73 30
133 30 40 0 91 -7 114 -15 l41 -14 0 124 0 125 -40 0 c-35 0 -40 3 -40 24 0
21 6 24 53 30 29 4 64 13 77 20 14 8 33 14 43 15 16 1 17 -27 17 -454z m350
395 c28 -28 26 -75 -5 -105 -37 -38 -76 -32 -101 17 -38 73 49 145 106 88z
m-1092 -127 c2 -106 1 -113 -17 -113 -15 0 -20 10 -26 50 -14 101 -61 130
-209 130 -96 0 -107 -2 -133 -24 -28 -24 -28 -24 -31 -175 l-4 -151 122 0 122
0 -7 50 -7 50 31 0 31 0 0 -130 0 -130 -25 0 c-22 0 -25 4 -25 34 0 26 -7 40
-27 56 -23 18 -38 20 -117 18 l-91 -3 -3 -192 -2 -193 132 0 c73 0 151 5 173
11 71 19 115 79 115 154 0 32 3 36 23 33 15 -2 22 -10 21 -25 0 -13 -1 -68 -2
-123 l-2 -100 -330 0 c-319 0 -330 1 -330 19 0 13 9 21 30 26 60 13 60 13 60
417 l0 368 -45 0 c-40 0 -45 2 -45 23 0 13 3 27 7 30 4 4 142 6 307 5 l301 -3
3 -112z m1454 -50 l3 -88 108 -3 c105 -3 108 -3 105 -25 -3 -21 -8 -22 -110
-25 l-108 -3 1 -207 c0 -128 5 -222 12 -246 25 -82 101 -97 172 -34 33 28 65
33 65 8 0 -5 -16 -28 -36 -49 -90 -101 -246 -92 -300 16 -17 33 -19 67 -22
276 l-3 237 -50 0 c-45 0 -49 2 -49 24 0 19 8 27 33 35 44 15 91 64 117 124
14 32 27 47 40 47 17 0 20 -9 22 -87z m-352 -373 l0 -300 35 0 c31 0 35 -3 35
-25 l0 -25 -125 0 c-116 0 -125 1 -125 19 0 11 9 21 23 25 42 10 47 42 47 286
l0 230 -45 0 c-41 0 -45 2 -45 24 0 21 6 24 58 30 31 4 68 13 82 20 14 8 33
14 43 15 16 1 17 -20 17 -299z m1105 276 c99 -46 154 -112 181 -217 40 -156
-38 -326 -186 -405 -55 -29 -200 -27 -260 5 -61 32 -116 86 -148 146 -24 45
-27 61 -27 150 0 89 3 106 27 155 40 82 81 125 150 159 81 41 186 44 263 7z
m475 -8 c0 -18 3 -43 6 -56 6 -22 8 -21 51 19 54 50 98 69 158 69 51 0 95 -32
95 -70 0 -23 -42 -70 -62 -70 -23 0 -58 30 -58 51 0 45 -77 13 -138 -57 l-41
-46 -3 -204 -3 -204 38 0 c33 0 37 -3 37 -25 l0 -25 -130 0 c-123 0 -130 1
-130 20 0 13 7 20 18 20 11 0 27 9 38 21 17 19 19 42 22 260 l3 239 -45 0
c-42 0 -46 2 -46 25 0 23 4 25 43 25 23 0 58 8 77 19 55 29 70 27 70 -11z
m756 13 c25 -12 50 -33 65 -57 23 -38 24 -45 27 -281 l3 -243 45 0 c40 0 44
-2 44 -25 0 -25 0 -25 -95 -25 l-95 0 0 36 0 36 -39 -31 c-77 -62 -187 -78
-268 -41 -100 45 -113 171 -26 251 58 54 182 99 275 99 l48 0 0 83 c0 106 -18
147 -75 165 -48 16 -118 2 -151 -29 -19 -17 -20 -25 -11 -49 21 -54 -31 -98
-84 -70 -24 14 -26 71 -2 110 16 29 73 66 121 80 52 16 174 11 218 -9z m-483
-889 c26 -29 32 -78 13 -107 -47 -72 -141 -39 -138 48 2 63 86 103 125 59z
m-3823 -3 c36 -5 94 -23 129 -39 35 -17 65 -30 67 -30 2 0 4 16 4 35 0 33 2
35 35 35 l35 0 0 -165 0 -165 -23 0 c-21 0 -25 8 -36 55 -43 194 -257 279
-444 178 -86 -47 -152 -139 -183 -256 -19 -72 -18 -240 2 -308 50 -168 174
-279 330 -295 109 -12 255 44 325 124 25 28 32 31 49 22 26 -14 17 -31 -47
-91 -64 -59 -104 -83 -187 -108 -135 -41 -295 -22 -405 48 -145 93 -223 245
-222 434 0 113 12 168 59 267 91 194 290 295 512 259z m4230 -199 l0 -100 121
0 120 0 -3 -27 -3 -28 -117 -3 -118 -3 0 -112 c0 -91 -5 -126 -25 -189 -13
-42 -34 -123 -45 -180 -12 -56 -23 -104 -25 -106 -1 -2 -9 12 -16 30 -9 23
-14 110 -17 296 l-3 262 -55 0 c-53 0 -54 1 -54 29 0 25 5 30 34 35 44 8 101
67 134 138 21 46 31 58 49 58 22 0 23 -2 23 -100z m-3307 -113 c73 -36 149
-119 177 -195 31 -82 26 -222 -12 -304 -33 -72 -107 -152 -173 -186 -44 -24
-61 -27 -150 -27 -89 0 -106 3 -156 28 -69 33 -132 99 -167 175 -24 50 -27 70
-27 158 0 96 2 103 38 176 44 90 112 157 190 188 77 30 203 24 280 -13z m855
17 c41 -17 92 -61 92 -80 0 -6 -21 -25 -47 -42 l-46 -30 -21 31 c-57 86 -186
85 -278 -1 -28 -25 -28 -28 -28 -147 l0 -122 -57 -46 -58 -47 -3 200 -2 200
-51 0 c-49 0 -50 1 -47 28 3 25 7 27 63 33 33 3 74 12 91 19 45 19 64 8 64
-36 0 -35 1 -36 18 -22 20 18 96 58 132 69 43 13 139 10 178 -7z m826 -7 c25
-17 26 -21 26 -107 0 -55 -4 -90 -10 -90 -19 0 -23 32 -11 67 12 31 11 37 -8
57 -47 50 -142 59 -219 20 -96 -48 -138 -148 -130 -311 3 -72 9 -101 31 -145
82 -167 251 -194 396 -63 33 30 40 33 56 21 17 -12 15 -16 -26 -60 -63 -69
-145 -108 -239 -114 -89 -5 -136 6 -210 50 -128 77 -188 247 -145 413 33 126
131 233 248 271 59 19 206 14 241 -9z m754 -12 c83 -45 142 -145 142 -240 l0
-32 -127 -6 c-71 -4 -183 -7 -251 -7 l-123 0 6 -62 c4 -35 15 -94 26 -131 34
-117 118 -177 231 -164 59 7 131 38 180 77 l37 30 -10 -32 c-11 -39 -16 -42
-97 -63 -85 -21 -132 -41 -132 -56 0 -11 50 -9 110 6 17 4 13 0 -10 -11 -21
-10 -69 -19 -120 -21 -70 -4 -95 -1 -141 16 -79 30 -141 88 -181 169 -32 64
-33 72 -33 182 0 106 2 120 28 172 46 93 130 167 227 199 14 5 61 7 105 6 66
-3 90 -8 133 -32z m1725 1 c148 -72 228 -231 198 -393 -32 -173 -153 -302
-300 -320 -43 -5 -54 -3 -65 12 -11 15 -22 17 -66 12 -67 -8 -107 9 -176 78
-71 71 -98 141 -97 260 0 68 5 103 22 145 42 108 128 195 225 226 68 23 192
13 259 -20z m-1245 -306 l-3 -330 43 0 c40 0 42 -1 42 -30 l0 -30 -145 0
c-136 0 -145 1 -145 19 0 12 11 23 31 30 19 7 35 21 42 40 8 22 19 31 43 36
18 3 38 13 45 22 13 15 10 16 -34 10 l-49 -7 4 240 3 240 -47 0 c-47 0 -48 1
-48 30 0 30 0 30 58 30 31 1 68 7 82 15 14 8 38 14 53 15 l28 0 -3 -330z
m-1923 -90 l0 -240 43 0 c40 0 42 -1 42 -30 l0 -30 -145 0 c-138 0 -145 1
-145 20 0 13 9 22 25 26 51 13 55 32 55 245 l0 196 52 37 c36 25 55 33 63 25
6 -6 10 -96 10 -249z m-422 -242 c37 -3 42 -6 45 -30 l3 -28 -150 0 c-137 0
-151 2 -151 18 0 9 15 24 33 32 17 8 38 27 45 42 7 14 38 50 70 79 l57 52 3
-81 3 -81 42 -3z m3001 67 c17 -13 17 -15 -7 -39 -15 -14 -30 -26 -36 -26 -5
0 -13 -9 -16 -21 -11 -33 -85 -61 -153 -57 l-57 3 3 64 c1 35 4 66 6 68 2 2
17 -10 34 -27 21 -21 40 -30 62 -30 41 0 97 26 118 56 20 27 21 28 46 9z"/>
<path d="M3654 5531 c-18 -10 -43 -34 -56 -53 -43 -58 -53 -96 -53 -208 1 -88
4 -113 24 -158 56 -125 178 -157 276 -71 l35 31 0 219 0 219 -27 17 c-41 27
-159 30 -199 4z"/>
<path d="M5260 5543 c-30 -11 -73 -59 -93 -103 -31 -67 -30 -242 1 -322 64
-159 241 -187 312 -49 64 127 38 362 -51 447 -25 24 -39 28 -92 31 -34 1 -69
0 -77 -4z"/>
<path d="M6575 5246 c-73 -18 -132 -52 -150 -86 -23 -44 -19 -94 9 -127 21
-24 31 -28 78 -27 52 0 104 20 141 52 14 12 17 32 17 109 0 106 3 103 -95 79z"/>
<path d="M3085 4349 c-41 -11 -88 -59 -116 -117 -22 -42 -24 -60 -24 -177 1
-111 4 -138 23 -187 31 -76 88 -134 144 -145 102 -21 179 23 220 126 31 78 31
258 -1 345 -47 132 -136 188 -246 155z"/>
<path d="M5565 4355 c-5 -2 -22 -6 -37 -9 -57 -13 -116 -85 -133 -163 l-7 -33
182 0 183 0 -7 43 c-10 61 -44 125 -75 141 -29 15 -90 27 -106 21z"/>
<path d="M7246 4345 c-86 -30 -135 -117 -144 -252 -10 -170 45 -309 143 -360
43 -23 127 -19 169 7 74 45 112 158 103 310 -10 191 -93 312 -212 310 -11 -1
-37 -7 -59 -15z"/>
</g>
</svg>
